<?xml version="1.0" encoding="UTF-8"?>
<svg width="24px" height="24px" viewBox="0 0 24 24" version="1.1" xmlns="http://www.w3.org/2000/svg" xmlns:xlink="http://www.w3.org/1999/xlink">
    <!-- Generator: Sketch 44 (41411) - http://www.bohemiancoding.com/sketch -->
    <title>icon_24_help_blue</title>
    <desc>Created with Sketch.</desc>
    <defs></defs>
    <g id="Page-1" stroke="none" stroke-width="1" fill="none" fill-rule="evenodd">
        <g id="Icon">
            <g id="icon_24_help_blue">
                <rect id="ph" x="0" y="0" width="24" height="24"></rect>
                <path d="M12,1 C18.0751322,1 23,5.92486775 23,12 C23,18.0751322 18.0751322,23 12,23 C5.92486775,23 1,18.0751322 1,12 C1,5.92486775 5.92486775,1 12,1 Z M12,3 C7.02943725,3 3,7.02943725 3,12 C3,16.9705627 7.02943725,21 12,21 C16.9705627,21 21,16.9705627 21,12 C21,7.02943725 16.9705627,3 12,3 Z" id="Combined-Shape" fill="#4990E2" fill-rule="nonzero"></path>
                <path d="M10.6930444,14.2983871 C10.6930444,13.5456952 10.7844413,12.9462388 10.9672379,12.5 C11.1500345,12.0537612 11.4847086,11.6142495 11.9712702,11.1814516 C12.4578317,10.7486538 12.7817532,10.3965067 12.9430444,10.125 C13.1043355,9.85349327 13.1849798,9.56720581 13.1849798,9.26612903 C13.1849798,8.35752234 12.7656292,7.90322581 11.9269153,7.90322581 C11.5290639,7.90322581 11.2105187,8.02553641 10.9712702,8.27016129 C10.7320217,8.51478617 10.6070229,8.85214839 10.5962702,9.28225806 L8.25756048,9.28225806 C8.26831323,8.25537121 8.60029915,7.45161581 9.25352823,6.87096774 C9.9067573,6.29031968 10.7978774,6 11.9269153,6 C13.066706,6 13.9511057,6.27553488 14.5801411,6.8266129 C15.2091765,7.37769093 15.5236895,8.15590895 15.5236895,9.16129032 C15.5236895,9.61828185 15.42154,10.0497292 15.2172379,10.4556452 C15.0129358,10.8615612 14.6554125,11.3118255 14.1446573,11.8064516 L13.4914315,12.4274194 C13.0828273,12.8198944 12.8489586,13.2795673 12.7898185,13.8064516 L12.7575605,14.2983871 L10.6930444,14.2983871 Z M10.4591734,16.7741935 C10.4591734,16.4139767 10.581484,16.1169367 10.8261089,15.8830645 C11.0707338,15.6491924 11.3839027,15.5322581 11.765625,15.5322581 C12.1473473,15.5322581 12.4605163,15.6491924 12.7051411,15.8830645 C12.949766,16.1169367 13.0720766,16.4139767 13.0720766,16.7741935 C13.0720766,17.129034 12.9524542,17.4220419 12.7132056,17.6532258 C12.4739571,17.8844098 12.1581001,18 11.765625,18 C11.3731499,18 11.0572929,17.8844098 10.8180444,17.6532258 C10.5787958,17.4220419 10.4591734,17.129034 10.4591734,16.7741935 Z" id="?" fill="#4990E2"></path>
            </g>
        </g>
    </g>
</svg>